<?xml version="1.0" encoding="utf-8"?>
<!-- Generated by IcoMoon.io -->
<!DOCTYPE svg PUBLIC "-//W3C//DTD SVG 1.1//EN" "http://www.w3.org/Graphics/SVG/1.1/DTD/svg11.dtd">
<svg version="1.1" xmlns="http://www.w3.org/2000/svg" xmlns:xlink="http://www.w3.org/1999/xlink" width="26" height="32" viewBox="0 0 26 32">
<path fill="#444444" d="M2.142 13.473l10.052 10.052c0.383 0.384 1.006 0.384 1.389 0s0.383-1.006 0-1.389l-9.358-9.357 9.315-9.315c0.383-0.384 0.383-1.006 0-1.389-0.192-0.192-0.443-0.288-0.695-0.288s-0.503 0.096-0.695 0.288l-10.009 10.010c-0.384 0.384-0.384 1.006 0 1.389z"></path>
<path fill="#444444" d="M11.729 12.779c0 0.261 0.104 0.51 0.288 0.695l10.052 10.052c0.384 0.384 1.006 0.384 1.389 0s0.384-1.006 0-1.389l-9.358-9.357 9.315-9.315c0.384-0.384 0.384-1.006 0-1.389-0.192-0.192-0.443-0.288-0.695-0.288s-0.503 0.096-0.695 0.288l-10.010 10.010c-0.184 0.184-0.288 0.434-0.288 0.695z"></path>
</svg>
