<?xml version="1.0" encoding="utf-8"?>
<!-- Generated by IcoMoon.io -->
<!DOCTYPE svg PUBLIC "-//W3C//DTD SVG 1.1//EN" "http://www.w3.org/Graphics/SVG/1.1/DTD/svg11.dtd">
<svg version="1.1" xmlns="http://www.w3.org/2000/svg" xmlns:xlink="http://www.w3.org/1999/xlink" width="64" height="64" viewBox="0 0 64 64">
<path fill="#888888" d="M17.909 29.064c1.053 1.051 5.107 5.33 5.107 5.33l2.248-2.318-3.523-3.64 6.763-7.183c0 0-3.053-2.976-1.717-1.791 1.277-4.744 0.113-10.037-3.49-13.765-3.572-3.699-8.648-4.912-13.209-3.639l7.728 7.982-2.033 7.832-7.566 2.090-7.724-7.984c-1.232 4.715-0.061 9.959 3.519 13.66 3.756 3.883 9.164 5.023 13.896 3.428zM43.676 36.827l-9.32 9.207 15.371 15.925c1.254 1.301 2.906 1.949 4.554 1.949 1.641 0 3.289-0.648 4.551-1.949 2.516-2.602 2.516-6.812 0-9.414l-15.156-15.718zM63.98 10.115l-9.789-10.115-28.855 29.831 3.523 3.641-17.271 17.851-3.947 2.109-5.576 9.097 1.42 1.473 8.802-5.765 2.041-4.082 17.271-17.847 3.525 3.641 28.855-29.833z"></path>
</svg>
